<?xml version="1.0" encoding="UTF-8" standalone="no"?>
<!DOCTYPE svg PUBLIC "-//W3C//DTD SVG 1.1//EN"
 "http://www.w3.org/Graphics/SVG/1.1/DTD/svg11.dtd">
<!-- Generated by graphviz version 15.0.0 (20260523.1842)
 -->
<!-- Pages: 1 -->
<svg width="2599pt" height="228pt"
 viewBox="0.00 0.00 2599.00 228.00" xmlns="http://www.w3.org/2000/svg" xmlns:xlink="http://www.w3.org/1999/xlink">
<g id="graph0" class="graph" transform="scale(1 1) rotate(0) translate(4 224)">
<polygon fill="white" stroke="none" points="-4,4 -4,-224 2595.36,-224 2595.36,4 -4,4"/>
<!-- 4344993808 -->
<g id="node1" class="node">
<title>4344993808</title>
<polygon fill="white" stroke="black" points="1652.38,-170.5 1652.38,-219.5 1792.88,-219.5 1792.88,-170.5 1652.38,-170.5"/>
<text xml:space="preserve" text-anchor="middle" x="1722.63" y="-202.2" font-family="Times,serif" font-size="14.00">data 0.5889, &#45;0.2264...</text>
<polyline fill="none" stroke="black" points="1652.38,-195 1792.88,-195"/>
<text xml:space="preserve" text-anchor="middle" x="1722.63" y="-177.7" font-family="Times,serif" font-size="14.00">grad 0.0000, 0.0000...</text>
</g>
<!-- 4351842768_op -->
<g id="node15" class="node">
<title>4351842768_op</title>
<ellipse fill="lightgrey" stroke="black" cx="1867.16" cy="-127" rx="27" ry="18"/>
<text xml:space="preserve" text-anchor="middle" x="1867.16" y="-121.95" font-family="Times,serif" font-size="14.00">@</text>
</g>
<!-- 4344993808&#45;&gt;4351842768_op -->
<g id="edge10" class="edge">
<title>4344993808&#45;&gt;4351842768_op</title>
<path fill="none" stroke="black" d="M1775.89,-170.07C1795.5,-160.71 1817.18,-150.37 1834.38,-142.17"/>
<polygon fill="black" stroke="black" points="1835.56,-145.48 1843.08,-138.01 1832.55,-139.16 1835.56,-145.48"/>
</g>
<!-- 4351842384 -->
<g id="node2" class="node">
<title>4351842384</title>
<polygon fill="white" stroke="black" points="289.07,-102.5 289.07,-151.5 434.07,-151.5 434.07,-102.5 289.07,-102.5"/>
<text xml:space="preserve" text-anchor="middle" x="361.57" y="-134.2" font-family="Times,serif" font-size="14.00">data &#45;0.6354, &#45;1.0019...</text>
<polyline fill="none" stroke="black" points="289.07,-127 434.07,-127"/>
<text xml:space="preserve" text-anchor="middle" x="361.57" y="-109.7" font-family="Times,serif" font-size="14.00">grad 0.0000, 0.0000...</text>
</g>
<!-- 4351841232_op -->
<g id="node25" class="node">
<title>4351841232_op</title>
<ellipse fill="lightgrey" stroke="black" cx="497.07" cy="-93" rx="27" ry="18"/>
<text xml:space="preserve" text-anchor="middle" x="497.07" y="-87.95" font-family="Times,serif" font-size="14.00">+</text>
</g>
<!-- 4351842384&#45;&gt;4351841232_op -->
<g id="edge22" class="edge">
<title>4351842384&#45;&gt;4351841232_op</title>
<path fill="none" stroke="black" d="M434.4,-108.71C443.46,-106.4 452.39,-104.12 460.53,-102.05"/>
<polygon fill="black" stroke="black" points="461.13,-105.51 469.96,-99.65 459.41,-98.72 461.13,-105.51"/>
</g>
<!-- 4351842384_op -->
<g id="node3" class="node">
<title>4351842384_op</title>
<ellipse fill="lightgrey" stroke="black" cx="215.53" cy="-127" rx="27" ry="18"/>
<text xml:space="preserve" text-anchor="middle" x="215.53" y="-121.95" font-family="Times,serif" font-size="14.00">@</text>
</g>
<!-- 4351842384_op&#45;&gt;4351842384 -->
<g id="edge1" class="edge">
<title>4351842384_op&#45;&gt;4351842384</title>
<path fill="none" stroke="black" d="M242.95,-127C252.9,-127 264.82,-127 277.2,-127"/>
<polygon fill="black" stroke="black" points="277.14,-130.5 287.14,-127 277.14,-123.5 277.14,-130.5"/>
</g>
<!-- 4341702160 -->
<g id="node4" class="node">
<title>4341702160</title>
<polygon fill="white" stroke="black" points="2.25,-170.5 2.25,-219.5 139.75,-219.5 139.75,-170.5 2.25,-170.5"/>
<text xml:space="preserve" text-anchor="middle" x="71" y="-202.2" font-family="Times,serif" font-size="14.00">data 2.0000, 3.0000...</text>
<polyline fill="none" stroke="black" points="2.25,-195 139.75,-195"/>
<text xml:space="preserve" text-anchor="middle" x="71" y="-177.7" font-family="Times,serif" font-size="14.00">grad 0.0242, 0.0108...</text>
</g>
<!-- 4341702160&#45;&gt;4351842384_op -->
<g id="edge2" class="edge">
<title>4341702160&#45;&gt;4351842384_op</title>
<path fill="none" stroke="black" d="M124.26,-170.07C143.87,-160.71 165.55,-150.37 182.75,-142.17"/>
<polygon fill="black" stroke="black" points="183.93,-145.48 191.45,-138.01 180.92,-139.16 183.93,-145.48"/>
</g>
<!-- 4344507968 -->
<g id="node5" class="node">
<title>4344507968</title>
<polygon fill="white" stroke="black" points="0,-102.5 0,-151.5 142,-151.5 142,-102.5 0,-102.5"/>
<text xml:space="preserve" text-anchor="middle" x="71" y="-134.2" font-family="Times,serif" font-size="14.00">data 0.3626, &#45;0.1364...</text>
<polyline fill="none" stroke="black" points="0,-127 142,-127"/>
<text xml:space="preserve" text-anchor="middle" x="71" y="-109.7" font-family="Times,serif" font-size="14.00">grad &#45;0.0056, 0.0000...</text>
</g>
<!-- 4344507968&#45;&gt;4351842384_op -->
<g id="edge3" class="edge">
<title>4344507968&#45;&gt;4351842384_op</title>
<path fill="none" stroke="black" d="M142.43,-127C154.36,-127 166.31,-127 176.96,-127"/>
<polygon fill="black" stroke="black" points="176.85,-130.5 186.85,-127 176.85,-123.5 176.85,-130.5"/>
</g>
<!-- 4345153744 -->
<g id="node6" class="node">
<title>4345153744</title>
<polygon fill="white" stroke="black" points="2207.2,-0.5 2207.2,-49.5 2347.7,-49.5 2347.7,-0.5 2207.2,-0.5"/>
<text xml:space="preserve" text-anchor="middle" x="2277.45" y="-32.2" font-family="Times,serif" font-size="14.00">data 1.0000, &#45;1.0000...</text>
<polyline fill="none" stroke="black" points="2207.2,-25 2347.7,-25"/>
<text xml:space="preserve" text-anchor="middle" x="2277.45" y="-7.7" font-family="Times,serif" font-size="14.00">grad 0.0000, 0.0000...</text>
</g>
<!-- 4351838800_op -->
<g id="node18" class="node">
<title>4351838800_op</title>
<ellipse fill="lightgrey" stroke="black" cx="2428.91" cy="-59" rx="45.21" ry="18"/>
<text xml:space="preserve" text-anchor="middle" x="2428.91" y="-53.95" font-family="Times,serif" font-size="14.00">mse_loss</text>
</g>
<!-- 4345153744&#45;&gt;4351838800_op -->
<g id="edge14" class="edge">
<title>4345153744&#45;&gt;4351838800_op</title>
<path fill="none" stroke="black" d="M2347.92,-40.81C2358.12,-43.12 2368.44,-45.47 2378.13,-47.68"/>
<polygon fill="black" stroke="black" points="2377.16,-51.05 2387.69,-49.85 2378.72,-44.22 2377.16,-51.05"/>
</g>
<!-- 4351836624 -->
<g id="node7" class="node">
<title>4351836624</title>
<polygon fill="white" stroke="black" points="1380.63,-102.5 1380.63,-151.5 1525.63,-151.5 1525.63,-102.5 1380.63,-102.5"/>
<text xml:space="preserve" text-anchor="middle" x="1453.13" y="-134.2" font-family="Times,serif" font-size="14.00">data &#45;0.0088, &#45;0.7034...</text>
<polyline fill="none" stroke="black" points="1380.63,-127 1525.63,-127"/>
<text xml:space="preserve" text-anchor="middle" x="1453.13" y="-109.7" font-family="Times,serif" font-size="14.00">grad 0.0000, 0.0000...</text>
</g>
<!-- 4351838160_op -->
<g id="node32" class="node">
<title>4351838160_op</title>
<ellipse fill="lightgrey" stroke="black" cx="1588.63" cy="-127" rx="27" ry="18"/>
<text xml:space="preserve" text-anchor="middle" x="1588.63" y="-121.95" font-family="Times,serif" font-size="14.00">relu</text>
</g>
<!-- 4351836624&#45;&gt;4351838160_op -->
<g id="edge31" class="edge">
<title>4351836624&#45;&gt;4351838160_op</title>
<path fill="none" stroke="black" d="M1525.96,-127C1534.22,-127 1542.38,-127 1549.92,-127"/>
<polygon fill="black" stroke="black" points="1549.68,-130.5 1559.68,-127 1549.68,-123.5 1549.68,-130.5"/>
</g>
<!-- 4351836624_op -->
<g id="node8" class="node">
<title>4351836624_op</title>
<ellipse fill="lightgrey" stroke="black" cx="1317.63" cy="-127" rx="27" ry="18"/>
<text xml:space="preserve" text-anchor="middle" x="1317.63" y="-121.95" font-family="Times,serif" font-size="14.00">+</text>
</g>
<!-- 4351836624_op&#45;&gt;4351836624 -->
<g id="edge4" class="edge">
<title>4351836624_op&#45;&gt;4351836624</title>
<path fill="none" stroke="black" d="M1345.01,-127C1352.19,-127 1360.38,-127 1368.95,-127"/>
<polygon fill="black" stroke="black" points="1368.87,-130.5 1378.87,-127 1368.87,-123.5 1368.87,-130.5"/>
</g>
<!-- 4351839568 -->
<g id="node9" class="node">
<title>4351839568</title>
<polygon fill="white" stroke="black" points="1114.13,-136.5 1114.13,-185.5 1254.63,-185.5 1254.63,-136.5 1114.13,-136.5"/>
<text xml:space="preserve" text-anchor="middle" x="1184.38" y="-168.2" font-family="Times,serif" font-size="14.00">data 0.0000, &#45;0.7062...</text>
<polyline fill="none" stroke="black" points="1114.13,-161 1254.63,-161"/>
<text xml:space="preserve" text-anchor="middle" x="1184.38" y="-143.7" font-family="Times,serif" font-size="14.00">grad 0.0000, 0.0000...</text>
</g>
<!-- 4351839568&#45;&gt;4351836624_op -->
<g id="edge5" class="edge">
<title>4351839568&#45;&gt;4351836624_op</title>
<path fill="none" stroke="black" d="M1254.85,-143C1263.88,-140.67 1272.81,-138.35 1280.95,-136.24"/>
<polygon fill="black" stroke="black" points="1281.61,-139.69 1290.41,-133.79 1279.85,-132.91 1281.61,-139.69"/>
</g>
<!-- 4351840080 -->
<g id="node10" class="node">
<title>4351840080</title>
<polygon fill="white" stroke="black" points="1114.13,-68.5 1114.13,-117.5 1254.63,-117.5 1254.63,-68.5 1114.13,-68.5"/>
<text xml:space="preserve" text-anchor="middle" x="1184.38" y="-100.2" font-family="Times,serif" font-size="14.00">data &#45;0.0088, 0.0028...</text>
<polyline fill="none" stroke="black" points="1114.13,-93 1254.63,-93"/>
<text xml:space="preserve" text-anchor="middle" x="1184.38" y="-75.7" font-family="Times,serif" font-size="14.00">grad 0.0000, 0.0000...</text>
</g>
<!-- 4351840080&#45;&gt;4351836624_op -->
<g id="edge6" class="edge">
<title>4351840080&#45;&gt;4351836624_op</title>
<path fill="none" stroke="black" d="M1254.85,-111C1263.88,-113.33 1272.81,-115.65 1280.95,-117.76"/>
<polygon fill="black" stroke="black" points="1279.85,-121.09 1290.41,-120.21 1281.61,-114.31 1279.85,-121.09"/>
</g>
<!-- 4351840720 -->
<g id="node11" class="node">
<title>4351840720</title>
<polygon fill="white" stroke="black" points="828.07,-68.5 828.07,-117.5 965.57,-117.5 965.57,-68.5 828.07,-68.5"/>
<text xml:space="preserve" text-anchor="middle" x="896.82" y="-100.2" font-family="Times,serif" font-size="14.00">data 0.0325, 0.0000...</text>
<polyline fill="none" stroke="black" points="828.07,-93 965.57,-93"/>
<text xml:space="preserve" text-anchor="middle" x="896.82" y="-75.7" font-family="Times,serif" font-size="14.00">grad 0.0000, 0.0000...</text>
</g>
<!-- 4351840080_op -->
<g id="node31" class="node">
<title>4351840080_op</title>
<ellipse fill="lightgrey" stroke="black" cx="1040.6" cy="-93" rx="27" ry="18"/>
<text xml:space="preserve" text-anchor="middle" x="1040.6" y="-87.95" font-family="Times,serif" font-size="14.00">@</text>
</g>
<!-- 4351840720&#45;&gt;4351840080_op -->
<g id="edge29" class="edge">
<title>4351840720&#45;&gt;4351840080_op</title>
<path fill="none" stroke="black" d="M965.8,-93C978.22,-93 990.76,-93 1001.89,-93"/>
<polygon fill="black" stroke="black" points="1001.83,-96.5 1011.83,-93 1001.83,-89.5 1001.83,-96.5"/>
</g>
<!-- 4351840720_op -->
<g id="node12" class="node">
<title>4351840720_op</title>
<ellipse fill="lightgrey" stroke="black" cx="763.57" cy="-93" rx="27" ry="18"/>
<text xml:space="preserve" text-anchor="middle" x="763.57" y="-87.95" font-family="Times,serif" font-size="14.00">relu</text>
</g>
<!-- 4351840720_op&#45;&gt;4351840720 -->
<g id="edge7" class="edge">
<title>4351840720_op&#45;&gt;4351840720</title>
<path fill="none" stroke="black" d="M790.81,-93C798.47,-93 807.26,-93 816.43,-93"/>
<polygon fill="black" stroke="black" points="816.24,-96.5 826.24,-93 816.24,-89.5 816.24,-96.5"/>
</g>
<!-- 4351841232 -->
<g id="node13" class="node">
<title>4351841232</title>
<polygon fill="white" stroke="black" points="560.07,-68.5 560.07,-117.5 700.57,-117.5 700.57,-68.5 560.07,-68.5"/>
<text xml:space="preserve" text-anchor="middle" x="630.32" y="-100.2" font-family="Times,serif" font-size="14.00">data 0.0325, &#45;1.2795...</text>
<polyline fill="none" stroke="black" points="560.07,-93 700.57,-93"/>
<text xml:space="preserve" text-anchor="middle" x="630.32" y="-75.7" font-family="Times,serif" font-size="14.00">grad 0.0000, 0.0000...</text>
</g>
<!-- 4351841232&#45;&gt;4351840720_op -->
<g id="edge8" class="edge">
<title>4351841232&#45;&gt;4351840720_op</title>
<path fill="none" stroke="black" d="M700.78,-93C709.1,-93 717.33,-93 724.94,-93"/>
<polygon fill="black" stroke="black" points="724.8,-96.5 734.8,-93 724.8,-89.5 724.8,-96.5"/>
</g>
<!-- 4351842768 -->
<g id="node14" class="node">
<title>4351842768</title>
<polygon fill="white" stroke="black" points="1940.7,-102.5 1940.7,-151.5 2081.2,-151.5 2081.2,-102.5 1940.7,-102.5"/>
<text xml:space="preserve" text-anchor="middle" x="2010.95" y="-134.2" font-family="Times,serif" font-size="14.00">data 0.0000, &#45;2.0011...</text>
<polyline fill="none" stroke="black" points="1940.7,-127 2081.2,-127"/>
<text xml:space="preserve" text-anchor="middle" x="2010.95" y="-109.7" font-family="Times,serif" font-size="14.00">grad 0.0028, 0.0023...</text>
</g>
<!-- 4351839184_op -->
<g id="node24" class="node">
<title>4351839184_op</title>
<ellipse fill="lightgrey" stroke="black" cx="2144.2" cy="-93" rx="27" ry="18"/>
<text xml:space="preserve" text-anchor="middle" x="2144.2" y="-87.95" font-family="Times,serif" font-size="14.00">+</text>
</g>
<!-- 4351842768&#45;&gt;4351839184_op -->
<g id="edge18" class="edge">
<title>4351842768&#45;&gt;4351839184_op</title>
<path fill="none" stroke="black" d="M2081.41,-109C2090.44,-106.67 2099.37,-104.35 2107.52,-102.24"/>
<polygon fill="black" stroke="black" points="2108.17,-105.69 2116.98,-99.79 2106.42,-98.91 2108.17,-105.69"/>
</g>
<!-- 4351842768_op&#45;&gt;4351842768 -->
<g id="edge9" class="edge">
<title>4351842768_op&#45;&gt;4351842768</title>
<path fill="none" stroke="black" d="M1894.5,-127C1904.49,-127 1916.47,-127 1928.88,-127"/>
<polygon fill="black" stroke="black" points="1928.83,-130.5 1938.83,-127 1928.83,-123.5 1928.83,-130.5"/>
</g>
<!-- 4351838160 -->
<g id="node16" class="node">
<title>4351838160</title>
<polygon fill="white" stroke="black" points="1651.63,-102.5 1651.63,-151.5 1793.63,-151.5 1793.63,-102.5 1651.63,-102.5"/>
<text xml:space="preserve" text-anchor="middle" x="1722.63" y="-134.2" font-family="Times,serif" font-size="14.00">data 0.0000, 0.0000...</text>
<polyline fill="none" stroke="black" points="1651.63,-127 1793.63,-127"/>
<text xml:space="preserve" text-anchor="middle" x="1722.63" y="-109.7" font-family="Times,serif" font-size="14.00">grad 0.0016, &#45;0.0006...</text>
</g>
<!-- 4351838160&#45;&gt;4351842768_op -->
<g id="edge11" class="edge">
<title>4351838160&#45;&gt;4351842768_op</title>
<path fill="none" stroke="black" d="M1794.06,-127C1805.99,-127 1817.94,-127 1828.59,-127"/>
<polygon fill="black" stroke="black" points="1828.48,-130.5 1838.48,-127 1828.48,-123.5 1828.48,-130.5"/>
</g>
<!-- 4351838800 -->
<g id="node17" class="node">
<title>4351838800</title>
<polygon fill="white" stroke="black" points="2510.11,-34.5 2510.11,-83.5 2591.36,-83.5 2591.36,-34.5 2510.11,-34.5"/>
<text xml:space="preserve" text-anchor="middle" x="2550.74" y="-66.2" font-family="Times,serif" font-size="14.00">data 0.0000</text>
<polyline fill="none" stroke="black" points="2510.11,-59 2591.36,-59"/>
<text xml:space="preserve" text-anchor="middle" x="2550.74" y="-41.7" font-family="Times,serif" font-size="14.00">grad 1.0000</text>
</g>
<!-- 4351838800_op&#45;&gt;4351838800 -->
<g id="edge12" class="edge">
<title>4351838800_op&#45;&gt;4351838800</title>
<path fill="none" stroke="black" d="M2474.53,-59C2482.31,-59 2490.45,-59 2498.4,-59"/>
<polygon fill="black" stroke="black" points="2498.31,-62.5 2508.31,-59 2498.31,-55.5 2498.31,-62.5"/>
</g>
<!-- 4351839184 -->
<g id="node19" class="node">
<title>4351839184</title>
<polygon fill="white" stroke="black" points="2207.2,-68.5 2207.2,-117.5 2347.7,-117.5 2347.7,-68.5 2207.2,-68.5"/>
<text xml:space="preserve" text-anchor="middle" x="2277.45" y="-100.2" font-family="Times,serif" font-size="14.00">data 1.0056, &#45;0.9955...</text>
<polyline fill="none" stroke="black" points="2207.2,-93 2347.7,-93"/>
<text xml:space="preserve" text-anchor="middle" x="2277.45" y="-75.7" font-family="Times,serif" font-size="14.00">grad 0.0028, 0.0023...</text>
</g>
<!-- 4351839184&#45;&gt;4351838800_op -->
<g id="edge13" class="edge">
<title>4351839184&#45;&gt;4351838800_op</title>
<path fill="none" stroke="black" d="M2347.92,-77.19C2358.12,-74.88 2368.44,-72.53 2378.13,-70.32"/>
<polygon fill="black" stroke="black" points="2378.72,-73.78 2387.69,-68.15 2377.16,-66.95 2378.72,-73.78"/>
</g>
<!-- 4344396560 -->
<g id="node20" class="node">
<title>4344396560</title>
<polygon fill="white" stroke="black" points="0,-34.5 0,-83.5 142,-83.5 142,-34.5 0,-34.5"/>
<text xml:space="preserve" text-anchor="middle" x="71" y="-66.2" font-family="Times,serif" font-size="14.00">data 0.6679, &#45;0.2775...</text>
<polyline fill="none" stroke="black" points="0,-59 142,-59"/>
<text xml:space="preserve" text-anchor="middle" x="71" y="-41.7" font-family="Times,serif" font-size="14.00">grad &#45;0.0015, 0.0000...</text>
</g>
<!-- 4351841872_op -->
<g id="node29" class="node">
<title>4351841872_op</title>
<ellipse fill="lightgrey" stroke="black" cx="215.53" cy="-59" rx="37.53" ry="18"/>
<text xml:space="preserve" text-anchor="middle" x="215.53" y="-53.95" font-family="Times,serif" font-size="14.00">expand</text>
</g>
<!-- 4344396560&#45;&gt;4351841872_op -->
<g id="edge26" class="edge">
<title>4344396560&#45;&gt;4351841872_op</title>
<path fill="none" stroke="black" d="M142.43,-59C150.54,-59 158.65,-59 166.37,-59"/>
<polygon fill="black" stroke="black" points="166.19,-62.5 176.19,-59 166.19,-55.5 166.19,-62.5"/>
</g>
<!-- 4351839056 -->
<g id="node21" class="node">
<title>4351839056</title>
<polygon fill="white" stroke="black" points="1942.2,-34.5 1942.2,-83.5 2079.7,-83.5 2079.7,-34.5 1942.2,-34.5"/>
<text xml:space="preserve" text-anchor="middle" x="2010.95" y="-66.2" font-family="Times,serif" font-size="14.00">data 1.0056, 1.0056...</text>
<polyline fill="none" stroke="black" points="1942.2,-59 2079.7,-59"/>
<text xml:space="preserve" text-anchor="middle" x="2010.95" y="-41.7" font-family="Times,serif" font-size="14.00">grad 0.0028, 0.0023...</text>
</g>
<!-- 4351839056&#45;&gt;4351839184_op -->
<g id="edge19" class="edge">
<title>4351839056&#45;&gt;4351839184_op</title>
<path fill="none" stroke="black" d="M2079.88,-76.6C2089.42,-79.07 2098.91,-81.53 2107.51,-83.76"/>
<polygon fill="black" stroke="black" points="2106.61,-87.14 2117.17,-86.26 2108.36,-80.36 2106.61,-87.14"/>
</g>
<!-- 4351839056_op -->
<g id="node22" class="node">
<title>4351839056_op</title>
<ellipse fill="lightgrey" stroke="black" cx="1867.16" cy="-59" rx="37.53" ry="18"/>
<text xml:space="preserve" text-anchor="middle" x="1867.16" y="-53.95" font-family="Times,serif" font-size="14.00">expand</text>
</g>
<!-- 4351839056_op&#45;&gt;4351839056 -->
<g id="edge15" class="edge">
<title>4351839056_op&#45;&gt;4351839056</title>
<path fill="none" stroke="black" d="M1905.04,-59C1913.01,-59 1921.72,-59 1930.61,-59"/>
<polygon fill="black" stroke="black" points="1930.41,-62.5 1940.41,-59 1930.41,-55.5 1930.41,-62.5"/>
</g>
<!-- 4341557168 -->
<g id="node23" class="node">
<title>4341557168</title>
<polygon fill="white" stroke="black" points="1682.01,-34.5 1682.01,-83.5 1763.26,-83.5 1763.26,-34.5 1682.01,-34.5"/>
<text xml:space="preserve" text-anchor="middle" x="1722.63" y="-66.2" font-family="Times,serif" font-size="14.00">data 1.0052</text>
<polyline fill="none" stroke="black" points="1682.01,-59 1763.26,-59"/>
<text xml:space="preserve" text-anchor="middle" x="1722.63" y="-41.7" font-family="Times,serif" font-size="14.00">grad 0.0073</text>
</g>
<!-- 4341557168&#45;&gt;4351839056_op -->
<g id="edge16" class="edge">
<title>4341557168&#45;&gt;4351839056_op</title>
<path fill="none" stroke="black" d="M1763.71,-59C1780.52,-59 1800.21,-59 1817.81,-59"/>
<polygon fill="black" stroke="black" points="1817.79,-62.5 1827.79,-59 1817.79,-55.5 1817.79,-62.5"/>
</g>
<!-- 4351839184_op&#45;&gt;4351839184 -->
<g id="edge17" class="edge">
<title>4351839184_op&#45;&gt;4351839184</title>
<path fill="none" stroke="black" d="M2171.44,-93C2178.62,-93 2186.79,-93 2195.34,-93"/>
<polygon fill="black" stroke="black" points="2195.23,-96.5 2205.23,-93 2195.23,-89.5 2195.23,-96.5"/>
</g>
<!-- 4351841232_op&#45;&gt;4351841232 -->
<g id="edge20" class="edge">
<title>4351841232_op&#45;&gt;4351841232</title>
<path fill="none" stroke="black" d="M524.31,-93C531.49,-93 539.66,-93 548.21,-93"/>
<polygon fill="black" stroke="black" points="548.09,-96.5 558.09,-93 548.09,-89.5 548.09,-96.5"/>
</g>
<!-- 4351841872 -->
<g id="node26" class="node">
<title>4351841872</title>
<polygon fill="white" stroke="black" points="291.32,-34.5 291.32,-83.5 431.82,-83.5 431.82,-34.5 291.32,-34.5"/>
<text xml:space="preserve" text-anchor="middle" x="361.57" y="-66.2" font-family="Times,serif" font-size="14.00">data 0.6680, &#45;0.2775...</text>
<polyline fill="none" stroke="black" points="291.32,-59 431.82,-59"/>
<text xml:space="preserve" text-anchor="middle" x="361.57" y="-41.7" font-family="Times,serif" font-size="14.00">grad 0.0000, 0.0000...</text>
</g>
<!-- 4351841872&#45;&gt;4351841232_op -->
<g id="edge21" class="edge">
<title>4351841872&#45;&gt;4351841232_op</title>
<path fill="none" stroke="black" d="M432.05,-76.7C441.83,-79.19 451.53,-81.66 460.31,-83.89"/>
<polygon fill="black" stroke="black" points="459.24,-87.23 469.79,-86.31 460.96,-80.45 459.24,-87.23"/>
</g>
<!-- 4351839568_op -->
<g id="node27" class="node">
<title>4351839568_op</title>
<ellipse fill="lightgrey" stroke="black" cx="1040.6" cy="-161" rx="37.53" ry="18"/>
<text xml:space="preserve" text-anchor="middle" x="1040.6" y="-155.95" font-family="Times,serif" font-size="14.00">expand</text>
</g>
<!-- 4351839568_op&#45;&gt;4351839568 -->
<g id="edge23" class="edge">
<title>4351839568_op&#45;&gt;4351839568</title>
<path fill="none" stroke="black" d="M1078.48,-161C1085.93,-161 1094.03,-161 1102.32,-161"/>
<polygon fill="black" stroke="black" points="1102.19,-164.5 1112.19,-161 1102.19,-157.5 1102.19,-164.5"/>
</g>
<!-- 4344993504 -->
<g id="node28" class="node">
<title>4344993504</title>
<polygon fill="white" stroke="black" points="826.57,-136.5 826.57,-185.5 967.07,-185.5 967.07,-136.5 826.57,-136.5"/>
<text xml:space="preserve" text-anchor="middle" x="896.82" y="-168.2" font-family="Times,serif" font-size="14.00">data 0.0000, &#45;0.7062...</text>
<polyline fill="none" stroke="black" points="826.57,-161 967.07,-161"/>
<text xml:space="preserve" text-anchor="middle" x="896.82" y="-143.7" font-family="Times,serif" font-size="14.00">grad 0.0000, 0.0000...</text>
</g>
<!-- 4344993504&#45;&gt;4351839568_op -->
<g id="edge24" class="edge">
<title>4344993504&#45;&gt;4351839568_op</title>
<path fill="none" stroke="black" d="M967.46,-161C975.55,-161 983.67,-161 991.38,-161"/>
<polygon fill="black" stroke="black" points="991.21,-164.5 1001.21,-161 991.21,-157.5 991.21,-164.5"/>
</g>
<!-- 4351841872_op&#45;&gt;4351841872 -->
<g id="edge25" class="edge">
<title>4351841872_op&#45;&gt;4351841872</title>
<path fill="none" stroke="black" d="M253.25,-59C261.43,-59 270.41,-59 279.59,-59"/>
<polygon fill="black" stroke="black" points="279.33,-62.5 289.33,-59 279.33,-55.5 279.33,-62.5"/>
</g>
<!-- 4344397520 -->
<g id="node30" class="node">
<title>4344397520</title>
<polygon fill="white" stroke="black" points="826.57,-0.5 826.57,-49.5 967.07,-49.5 967.07,-0.5 826.57,-0.5"/>
<text xml:space="preserve" text-anchor="middle" x="896.82" y="-32.2" font-family="Times,serif" font-size="14.00">data &#45;0.2710, 0.0859...</text>
<polyline fill="none" stroke="black" points="826.57,-25 967.07,-25"/>
<text xml:space="preserve" text-anchor="middle" x="896.82" y="-7.7" font-family="Times,serif" font-size="14.00">grad 0.0000, 0.0000...</text>
</g>
<!-- 4344397520&#45;&gt;4351840080_op -->
<g id="edge28" class="edge">
<title>4344397520&#45;&gt;4351840080_op</title>
<path fill="none" stroke="black" d="M949.8,-49.93C969.31,-59.29 990.87,-69.63 1007.98,-77.83"/>
<polygon fill="black" stroke="black" points="1006.1,-80.82 1016.63,-81.98 1009.13,-74.5 1006.1,-80.82"/>
</g>
<!-- 4351840080_op&#45;&gt;4351840080 -->
<g id="edge27" class="edge">
<title>4351840080_op&#45;&gt;4351840080</title>
<path fill="none" stroke="black" d="M1067.93,-93C1077.93,-93 1089.91,-93 1102.31,-93"/>
<polygon fill="black" stroke="black" points="1102.27,-96.5 1112.27,-93 1102.27,-89.5 1102.27,-96.5"/>
</g>
<!-- 4351838160_op&#45;&gt;4351838160 -->
<g id="edge30" class="edge">
<title>4351838160_op&#45;&gt;4351838160</title>
<path fill="none" stroke="black" d="M1616.03,-127C1623.19,-127 1631.35,-127 1639.88,-127"/>
<polygon fill="black" stroke="black" points="1639.74,-130.5 1649.74,-127 1639.74,-123.5 1639.74,-130.5"/>
</g>
</g>
</svg>
