<?xml version="1.0" encoding="UTF-8" standalone="no"?>
<!DOCTYPE svg PUBLIC "-//W3C//DTD SVG 1.1//EN"
 "http://www.w3.org/Graphics/SVG/1.1/DTD/svg11.dtd">
<!-- Generated by graphviz version 15.0.0 (20260523.1842)
 -->
<!-- Pages: 1 -->
<svg width="3217pt" height="330pt"
 viewBox="0.00 0.00 3217.00 330.00" xmlns="http://www.w3.org/2000/svg" xmlns:xlink="http://www.w3.org/1999/xlink">
<g id="graph0" class="graph" transform="scale(1 1) rotate(0) translate(4 326)">
<polygon fill="white" stroke="none" points="-4,4 -4,-326 3212.66,-326 3212.66,4 -4,4"/>
<!-- 4371849168 -->
<g id="node1" class="node">
<title>4371849168</title>
<polygon fill="white" stroke="black" points="2293.3,-272.5 2293.3,-321.5 2377.55,-321.5 2377.55,-272.5 2293.3,-272.5"/>
<text xml:space="preserve" text-anchor="middle" x="2335.42" y="-304.2" font-family="Times,serif" font-size="14.00">data &#45;0.0292</text>
<polyline fill="none" stroke="black" points="2293.3,-297 2377.55,-297"/>
<text xml:space="preserve" text-anchor="middle" x="2335.42" y="-279.7" font-family="Times,serif" font-size="14.00">grad 0.5172</text>
</g>
<!-- 4376877520_op -->
<g id="node12" class="node">
<title>4376877520_op</title>
<ellipse fill="lightgrey" stroke="black" cx="2479.95" cy="-297" rx="37.53" ry="18"/>
<text xml:space="preserve" text-anchor="middle" x="2479.95" y="-291.95" font-family="Times,serif" font-size="14.00">expand</text>
</g>
<!-- 4371849168&#45;&gt;4376877520_op -->
<g id="edge8" class="edge">
<title>4371849168&#45;&gt;4376877520_op</title>
<path fill="none" stroke="black" d="M2378.03,-297C2394.59,-297 2413.74,-297 2430.89,-297"/>
<polygon fill="black" stroke="black" points="2430.87,-300.5 2440.87,-297 2430.87,-293.5 2430.87,-300.5"/>
</g>
<!-- 4376985680 -->
<g id="node2" class="node">
<title>4376985680</title>
<polygon fill="white" stroke="black" points="1122.72,-204.5 1122.72,-253.5 1267.72,-253.5 1267.72,-204.5 1122.72,-204.5"/>
<text xml:space="preserve" text-anchor="middle" x="1195.22" y="-236.2" font-family="Times,serif" font-size="14.00">data &#45;0.6588, &#45;0.2730...</text>
<polyline fill="none" stroke="black" points="1122.72,-229 1267.72,-229"/>
<text xml:space="preserve" text-anchor="middle" x="1195.22" y="-211.7" font-family="Times,serif" font-size="14.00">grad &#45;0.0014, 0.3572...</text>
</g>
<!-- 4378270288_op -->
<g id="node15" class="node">
<title>4378270288_op</title>
<ellipse fill="lightgrey" stroke="black" cx="1341.26" cy="-161" rx="27" ry="18"/>
<text xml:space="preserve" text-anchor="middle" x="1341.26" y="-155.95" font-family="Times,serif" font-size="14.00">@</text>
</g>
<!-- 4376985680&#45;&gt;4378270288_op -->
<g id="edge10" class="edge">
<title>4376985680&#45;&gt;4378270288_op</title>
<path fill="none" stroke="black" d="M1249.04,-204.07C1268.99,-194.65 1291.05,-184.23 1308.48,-176"/>
<polygon fill="black" stroke="black" points="1309.76,-179.27 1317.31,-171.83 1306.77,-172.94 1309.76,-179.27"/>
</g>
<!-- 4378271952 -->
<g id="node3" class="node">
<title>4378271952</title>
<polygon fill="white" stroke="black" points="563.07,-102.5 563.07,-151.5 703.57,-151.5 703.57,-102.5 563.07,-102.5"/>
<text xml:space="preserve" text-anchor="middle" x="633.32" y="-134.2" font-family="Times,serif" font-size="14.00">data 4.1930, &#45;1.8617...</text>
<polyline fill="none" stroke="black" points="563.07,-127 703.57,-127"/>
<text xml:space="preserve" text-anchor="middle" x="633.32" y="-109.7" font-family="Times,serif" font-size="14.00">grad 0.0000, 0.0000...</text>
</g>
<!-- 4378271440_op -->
<g id="node39" class="node">
<title>4378271440_op</title>
<ellipse fill="lightgrey" stroke="black" cx="779.15" cy="-127" rx="27" ry="18"/>
<text xml:space="preserve" text-anchor="middle" x="779.15" y="-121.95" font-family="Times,serif" font-size="14.00">relu</text>
</g>
<!-- 4378271952&#45;&gt;4378271440_op -->
<g id="edge36" class="edge">
<title>4378271952&#45;&gt;4378271440_op</title>
<path fill="none" stroke="black" d="M703.7,-127C716.39,-127 729.19,-127 740.5,-127"/>
<polygon fill="black" stroke="black" points="740.18,-130.5 750.18,-127 740.18,-123.5 740.18,-130.5"/>
</g>
<!-- 4378271952_op -->
<g id="node4" class="node">
<title>4378271952_op</title>
<ellipse fill="lightgrey" stroke="black" cx="500.07" cy="-127" rx="27" ry="18"/>
<text xml:space="preserve" text-anchor="middle" x="500.07" y="-121.95" font-family="Times,serif" font-size="14.00">+</text>
</g>
<!-- 4378271952_op&#45;&gt;4378271952 -->
<g id="edge1" class="edge">
<title>4378271952_op&#45;&gt;4378271952</title>
<path fill="none" stroke="black" d="M527.31,-127C534.49,-127 542.66,-127 551.21,-127"/>
<polygon fill="black" stroke="black" points="551.09,-130.5 561.09,-127 551.09,-123.5 551.09,-130.5"/>
</g>
<!-- 4378272592 -->
<g id="node5" class="node">
<title>4378272592</title>
<polygon fill="white" stroke="black" points="292.07,-136.5 292.07,-185.5 437.07,-185.5 437.07,-136.5 292.07,-136.5"/>
<text xml:space="preserve" text-anchor="middle" x="364.57" y="-168.2" font-family="Times,serif" font-size="14.00">data &#45;0.3775, &#45;0.3199...</text>
<polyline fill="none" stroke="black" points="292.07,-161 437.07,-161"/>
<text xml:space="preserve" text-anchor="middle" x="364.57" y="-143.7" font-family="Times,serif" font-size="14.00">grad 0.0000, 0.0000...</text>
</g>
<!-- 4378272592&#45;&gt;4378271952_op -->
<g id="edge2" class="edge">
<title>4378272592&#45;&gt;4378271952_op</title>
<path fill="none" stroke="black" d="M437.4,-142.71C446.46,-140.4 455.39,-138.12 463.53,-136.05"/>
<polygon fill="black" stroke="black" points="464.13,-139.51 472.96,-133.65 462.41,-132.72 464.13,-139.51"/>
</g>
<!-- 4378273104 -->
<g id="node6" class="node">
<title>4378273104</title>
<polygon fill="white" stroke="black" points="294.32,-68.5 294.32,-117.5 434.82,-117.5 434.82,-68.5 294.32,-68.5"/>
<text xml:space="preserve" text-anchor="middle" x="364.57" y="-100.2" font-family="Times,serif" font-size="14.00">data 4.5704, &#45;1.5418...</text>
<polyline fill="none" stroke="black" points="294.32,-93 434.82,-93"/>
<text xml:space="preserve" text-anchor="middle" x="364.57" y="-75.7" font-family="Times,serif" font-size="14.00">grad 0.0000, 0.0000...</text>
</g>
<!-- 4378273104&#45;&gt;4378271952_op -->
<g id="edge3" class="edge">
<title>4378273104&#45;&gt;4378271952_op</title>
<path fill="none" stroke="black" d="M435.05,-110.7C444.83,-113.19 454.53,-115.66 463.31,-117.89"/>
<polygon fill="black" stroke="black" points="462.24,-121.23 472.79,-120.31 463.96,-114.45 462.24,-121.23"/>
</g>
<!-- 4378270032 -->
<g id="node7" class="node">
<title>4378270032</title>
<polygon fill="white" stroke="black" points="1124.22,-136.5 1124.22,-185.5 1266.22,-185.5 1266.22,-136.5 1124.22,-136.5"/>
<text xml:space="preserve" text-anchor="middle" x="1195.22" y="-168.2" font-family="Times,serif" font-size="14.00">data 0.0000, 0.0000...</text>
<polyline fill="none" stroke="black" points="1124.22,-161 1266.22,-161"/>
<text xml:space="preserve" text-anchor="middle" x="1195.22" y="-143.7" font-family="Times,serif" font-size="14.00">grad 0.0018, &#45;0.0546...</text>
</g>
<!-- 4378270032&#45;&gt;4378270288_op -->
<g id="edge11" class="edge">
<title>4378270032&#45;&gt;4378270288_op</title>
<path fill="none" stroke="black" d="M1266.55,-161C1278.93,-161 1291.37,-161 1302.42,-161"/>
<polygon fill="black" stroke="black" points="1302.27,-164.5 1312.27,-161 1302.27,-157.5 1302.27,-164.5"/>
</g>
<!-- 4378270032_op -->
<g id="node8" class="node">
<title>4378270032_op</title>
<ellipse fill="lightgrey" stroke="black" cx="1059.72" cy="-161" rx="27" ry="18"/>
<text xml:space="preserve" text-anchor="middle" x="1059.72" y="-155.95" font-family="Times,serif" font-size="14.00">*</text>
</g>
<!-- 4378270032_op&#45;&gt;4378270032 -->
<g id="edge4" class="edge">
<title>4378270032_op&#45;&gt;4378270032</title>
<path fill="none" stroke="black" d="M1087.1,-161C1094.72,-161 1103.46,-161 1112.59,-161"/>
<polygon fill="black" stroke="black" points="1112.36,-164.5 1122.36,-161 1112.36,-157.5 1112.36,-164.5"/>
</g>
<!-- 4378270800 -->
<g id="node9" class="node">
<title>4378270800</title>
<polygon fill="white" stroke="black" points="856.97,-170.5 856.97,-219.5 994.47,-219.5 994.47,-170.5 856.97,-170.5"/>
<text xml:space="preserve" text-anchor="middle" x="925.72" y="-202.2" font-family="Times,serif" font-size="14.00">data 0.0000, 1.2500...</text>
<polyline fill="none" stroke="black" points="856.97,-195 994.47,-195"/>
<text xml:space="preserve" text-anchor="middle" x="925.72" y="-177.7" font-family="Times,serif" font-size="14.00">grad 0.0077, 0.0000...</text>
</g>
<!-- 4378270800&#45;&gt;4378270032_op -->
<g id="edge5" class="edge">
<title>4378270800&#45;&gt;4378270032_op</title>
<path fill="none" stroke="black" d="M994.66,-177.5C1004.5,-174.97 1014.28,-172.45 1023.13,-170.17"/>
<polygon fill="black" stroke="black" points="1023.87,-173.59 1032.68,-167.71 1022.13,-166.81 1023.87,-173.59"/>
</g>
<!-- 4378271440 -->
<g id="node10" class="node">
<title>4378271440</title>
<polygon fill="white" stroke="black" points="854.72,-102.5 854.72,-151.5 996.72,-151.5 996.72,-102.5 854.72,-102.5"/>
<text xml:space="preserve" text-anchor="middle" x="925.72" y="-134.2" font-family="Times,serif" font-size="14.00">data 4.1930, 0.0000...</text>
<polyline fill="none" stroke="black" points="854.72,-127 996.72,-127"/>
<text xml:space="preserve" text-anchor="middle" x="925.72" y="-109.7" font-family="Times,serif" font-size="14.00">grad 0.0000, &#45;0.0682...</text>
</g>
<!-- 4378271440&#45;&gt;4378270032_op -->
<g id="edge6" class="edge">
<title>4378271440&#45;&gt;4378270032_op</title>
<path fill="none" stroke="black" d="M996.98,-145.1C1006.02,-147.42 1014.95,-149.72 1023.09,-151.82"/>
<polygon fill="black" stroke="black" points="1021.99,-155.15 1032.54,-154.26 1023.73,-148.37 1021.99,-155.15"/>
</g>
<!-- 4376877520 -->
<g id="node11" class="node">
<title>4376877520</title>
<polygon fill="white" stroke="black" points="2553.49,-272.5 2553.49,-321.5 2698.49,-321.5 2698.49,-272.5 2553.49,-272.5"/>
<text xml:space="preserve" text-anchor="middle" x="2625.99" y="-304.2" font-family="Times,serif" font-size="14.00">data &#45;0.0235, &#45;0.0235...</text>
<polyline fill="none" stroke="black" points="2553.49,-297 2698.49,-297"/>
<text xml:space="preserve" text-anchor="middle" x="2625.99" y="-279.7" font-family="Times,serif" font-size="14.00">grad 0.1357, 0.0774...</text>
</g>
<!-- 4376879056_op -->
<g id="node40" class="node">
<title>4376879056_op</title>
<ellipse fill="lightgrey" stroke="black" cx="2761.49" cy="-263" rx="27" ry="18"/>
<text xml:space="preserve" text-anchor="middle" x="2761.49" y="-257.95" font-family="Times,serif" font-size="14.00">+</text>
</g>
<!-- 4376877520&#45;&gt;4376879056_op -->
<g id="edge39" class="edge">
<title>4376877520&#45;&gt;4376879056_op</title>
<path fill="none" stroke="black" d="M2698.82,-278.71C2707.88,-276.4 2716.81,-274.12 2724.95,-272.05"/>
<polygon fill="black" stroke="black" points="2725.56,-275.51 2734.38,-269.65 2723.83,-268.72 2725.56,-275.51"/>
</g>
<!-- 4376877520_op&#45;&gt;4376877520 -->
<g id="edge7" class="edge">
<title>4376877520_op&#45;&gt;4376877520</title>
<path fill="none" stroke="black" d="M2517.67,-297C2525.12,-297 2533.24,-297 2541.57,-297"/>
<polygon fill="black" stroke="black" points="2541.5,-300.5 2551.5,-297 2541.5,-293.5 2541.5,-300.5"/>
</g>
<!-- 4376629792 -->
<g id="node13" class="node">
<title>4376629792</title>
<polygon fill="white" stroke="black" points="1124.22,-68.5 1124.22,-117.5 1266.22,-117.5 1266.22,-68.5 1124.22,-68.5"/>
<text xml:space="preserve" text-anchor="middle" x="1195.22" y="-100.2" font-family="Times,serif" font-size="14.00">data &#45;0.2101, 0.0156...</text>
<polyline fill="none" stroke="black" points="1124.22,-93 1266.22,-93"/>
<text xml:space="preserve" text-anchor="middle" x="1195.22" y="-75.7" font-family="Times,serif" font-size="14.00">grad &#45;0.0012, 0.3071...</text>
</g>
<!-- 4378269136_op -->
<g id="node35" class="node">
<title>4378269136_op</title>
<ellipse fill="lightgrey" stroke="black" cx="1341.26" cy="-93" rx="37.53" ry="18"/>
<text xml:space="preserve" text-anchor="middle" x="1341.26" y="-87.95" font-family="Times,serif" font-size="14.00">expand</text>
</g>
<!-- 4376629792&#45;&gt;4378269136_op -->
<g id="edge29" class="edge">
<title>4376629792&#45;&gt;4378269136_op</title>
<path fill="none" stroke="black" d="M1266.55,-93C1275.19,-93 1283.86,-93 1292.07,-93"/>
<polygon fill="black" stroke="black" points="1291.8,-96.5 1301.8,-93 1291.8,-89.5 1291.8,-96.5"/>
</g>
<!-- 4378270288 -->
<g id="node14" class="node">
<title>4378270288</title>
<polygon fill="white" stroke="black" points="1414.79,-136.5 1414.79,-185.5 1556.79,-185.5 1556.79,-136.5 1414.79,-136.5"/>
<text xml:space="preserve" text-anchor="middle" x="1485.79" y="-168.2" font-family="Times,serif" font-size="14.00">data &#45;0.4543, 1.4952...</text>
<polyline fill="none" stroke="black" points="1414.79,-161 1556.79,-161"/>
<text xml:space="preserve" text-anchor="middle" x="1485.79" y="-143.7" font-family="Times,serif" font-size="14.00">grad &#45;0.0003, 0.0806...</text>
</g>
<!-- 4378268496_op -->
<g id="node18" class="node">
<title>4378268496_op</title>
<ellipse fill="lightgrey" stroke="black" cx="1619.79" cy="-127" rx="27" ry="18"/>
<text xml:space="preserve" text-anchor="middle" x="1619.79" y="-121.95" font-family="Times,serif" font-size="14.00">+</text>
</g>
<!-- 4378270288&#45;&gt;4378268496_op -->
<g id="edge14" class="edge">
<title>4378270288&#45;&gt;4378268496_op</title>
<path fill="none" stroke="black" d="M1557.04,-142.9C1566.08,-140.58 1575.01,-138.28 1583.16,-136.18"/>
<polygon fill="black" stroke="black" points="1583.8,-139.63 1592.61,-133.74 1582.05,-132.85 1583.8,-139.63"/>
</g>
<!-- 4378270288_op&#45;&gt;4378270288 -->
<g id="edge9" class="edge">
<title>4378270288_op&#45;&gt;4378270288</title>
<path fill="none" stroke="black" d="M1368.73,-161C1378.72,-161 1390.68,-161 1403.07,-161"/>
<polygon fill="black" stroke="black" points="1403.01,-164.5 1413.01,-161 1403.01,-157.5 1403.01,-164.5"/>
</g>
<!-- 4376630096 -->
<g id="node16" class="node">
<title>4376630096</title>
<polygon fill="white" stroke="black" points="2264.42,-204.5 2264.42,-253.5 2406.42,-253.5 2406.42,-204.5 2264.42,-204.5"/>
<text xml:space="preserve" text-anchor="middle" x="2335.42" y="-236.2" font-family="Times,serif" font-size="14.00">data &#45;0.2071, 0.5228...</text>
<polyline fill="none" stroke="black" points="2264.42,-229 2406.42,-229"/>
<text xml:space="preserve" text-anchor="middle" x="2335.42" y="-211.7" font-family="Times,serif" font-size="14.00">grad &#45;0.0076, 0.4828...</text>
</g>
<!-- 4378273488_op -->
<g id="node38" class="node">
<title>4378273488_op</title>
<ellipse fill="lightgrey" stroke="black" cx="2479.95" cy="-229" rx="27" ry="18"/>
<text xml:space="preserve" text-anchor="middle" x="2479.95" y="-223.95" font-family="Times,serif" font-size="14.00">@</text>
</g>
<!-- 4376630096&#45;&gt;4378273488_op -->
<g id="edge33" class="edge">
<title>4376630096&#45;&gt;4378273488_op</title>
<path fill="none" stroke="black" d="M2406.85,-229C2418.78,-229 2430.73,-229 2441.38,-229"/>
<polygon fill="black" stroke="black" points="2441.27,-232.5 2451.27,-229 2441.27,-225.5 2441.27,-232.5"/>
</g>
<!-- 4378268496 -->
<g id="node17" class="node">
<title>4378268496</title>
<polygon fill="white" stroke="black" points="1682.79,-102.5 1682.79,-151.5 1824.79,-151.5 1824.79,-102.5 1682.79,-102.5"/>
<text xml:space="preserve" text-anchor="middle" x="1753.79" y="-134.2" font-family="Times,serif" font-size="14.00">data &#45;0.6646, 1.5329...</text>
<polyline fill="none" stroke="black" points="1682.79,-127 1824.79,-127"/>
<text xml:space="preserve" text-anchor="middle" x="1753.79" y="-109.7" font-family="Times,serif" font-size="14.00">grad &#45;0.0003, 0.0806...</text>
</g>
<!-- 4376878672_op -->
<g id="node36" class="node">
<title>4376878672_op</title>
<ellipse fill="lightgrey" stroke="black" cx="1910.61" cy="-127" rx="49.82" ry="18"/>
<text xml:space="preserve" text-anchor="middle" x="1910.61" y="-121.95" font-family="Times,serif" font-size="14.00">leaky_relu</text>
</g>
<!-- 4378268496&#45;&gt;4376878672_op -->
<g id="edge31" class="edge">
<title>4378268496&#45;&gt;4376878672_op</title>
<path fill="none" stroke="black" d="M1824.95,-127C1833.01,-127 1841.18,-127 1849.1,-127"/>
<polygon fill="black" stroke="black" points="1848.97,-130.5 1858.97,-127 1848.97,-123.5 1848.97,-130.5"/>
</g>
<!-- 4378268496_op&#45;&gt;4378268496 -->
<g id="edge12" class="edge">
<title>4378268496_op&#45;&gt;4378268496</title>
<path fill="none" stroke="black" d="M1647.18,-127C1654.35,-127 1662.51,-127 1671.04,-127"/>
<polygon fill="black" stroke="black" points="1670.9,-130.5 1680.9,-127 1670.9,-123.5 1670.9,-130.5"/>
</g>
<!-- 4378269136 -->
<g id="node19" class="node">
<title>4378269136</title>
<polygon fill="white" stroke="black" points="1414.79,-68.5 1414.79,-117.5 1556.79,-117.5 1556.79,-68.5 1414.79,-68.5"/>
<text xml:space="preserve" text-anchor="middle" x="1485.79" y="-100.2" font-family="Times,serif" font-size="14.00">data &#45;0.2104, 0.0377...</text>
<polyline fill="none" stroke="black" points="1414.79,-93 1556.79,-93"/>
<text xml:space="preserve" text-anchor="middle" x="1485.79" y="-75.7" font-family="Times,serif" font-size="14.00">grad &#45;0.0003, 0.0806...</text>
</g>
<!-- 4378269136&#45;&gt;4378268496_op -->
<g id="edge13" class="edge">
<title>4378269136&#45;&gt;4378268496_op</title>
<path fill="none" stroke="black" d="M1557.04,-111.1C1566.08,-113.42 1575.01,-115.72 1583.16,-117.82"/>
<polygon fill="black" stroke="black" points="1582.05,-121.15 1592.61,-120.26 1583.8,-114.37 1582.05,-121.15"/>
</g>
<!-- 4378272592_op -->
<g id="node20" class="node">
<title>4378272592_op</title>
<ellipse fill="lightgrey" stroke="black" cx="218.53" cy="-161" rx="37.53" ry="18"/>
<text xml:space="preserve" text-anchor="middle" x="218.53" y="-155.95" font-family="Times,serif" font-size="14.00">expand</text>
</g>
<!-- 4378272592_op&#45;&gt;4378272592 -->
<g id="edge15" class="edge">
<title>4378272592_op&#45;&gt;4378272592</title>
<path fill="none" stroke="black" d="M256.25,-161C263.7,-161 271.82,-161 280.15,-161"/>
<polygon fill="black" stroke="black" points="280.07,-164.5 290.07,-161 280.07,-157.5 280.07,-164.5"/>
</g>
<!-- 4376001616 -->
<g id="node21" class="node">
<title>4376001616</title>
<polygon fill="white" stroke="black" points="0,-136.5 0,-185.5 145,-185.5 145,-136.5 0,-136.5"/>
<text xml:space="preserve" text-anchor="middle" x="72.5" y="-168.2" font-family="Times,serif" font-size="14.00">data &#45;0.3786, &#45;0.3199...</text>
<polyline fill="none" stroke="black" points="0,-161 145,-161"/>
<text xml:space="preserve" text-anchor="middle" x="72.5" y="-143.7" font-family="Times,serif" font-size="14.00">grad 0.0038, 0.0000...</text>
</g>
<!-- 4376001616&#45;&gt;4378272592_op -->
<g id="edge16" class="edge">
<title>4376001616&#45;&gt;4378272592_op</title>
<path fill="none" stroke="black" d="M145.09,-161C153.25,-161 161.42,-161 169.17,-161"/>
<polygon fill="black" stroke="black" points="169.05,-164.5 179.05,-161 169.05,-157.5 169.05,-164.5"/>
</g>
<!-- 4376878160 -->
<g id="node22" class="node">
<title>4376878160</title>
<polygon fill="white" stroke="black" points="3127.41,-204.5 3127.41,-253.5 3208.66,-253.5 3208.66,-204.5 3127.41,-204.5"/>
<text xml:space="preserve" text-anchor="middle" x="3168.03" y="-236.2" font-family="Times,serif" font-size="14.00">data 0.0817</text>
<polyline fill="none" stroke="black" points="3127.41,-229 3208.66,-229"/>
<text xml:space="preserve" text-anchor="middle" x="3168.03" y="-211.7" font-family="Times,serif" font-size="14.00">grad 1.0000</text>
</g>
<!-- 4376878160_op -->
<g id="node23" class="node">
<title>4376878160_op</title>
<ellipse fill="lightgrey" stroke="black" cx="3046.2" cy="-229" rx="45.21" ry="18"/>
<text xml:space="preserve" text-anchor="middle" x="3046.2" y="-223.95" font-family="Times,serif" font-size="14.00">mse_loss</text>
</g>
<!-- 4376878160_op&#45;&gt;4376878160 -->
<g id="edge17" class="edge">
<title>4376878160_op&#45;&gt;4376878160</title>
<path fill="none" stroke="black" d="M3091.82,-229C3099.6,-229 3107.75,-229 3115.69,-229"/>
<polygon fill="black" stroke="black" points="3115.6,-232.5 3125.6,-229 3115.6,-225.5 3115.6,-232.5"/>
</g>
<!-- 4376774320 -->
<g id="node24" class="node">
<title>4376774320</title>
<polygon fill="white" stroke="black" points="2824.49,-170.5 2824.49,-219.5 2964.99,-219.5 2964.99,-170.5 2824.49,-170.5"/>
<text xml:space="preserve" text-anchor="middle" x="2894.74" y="-202.2" font-family="Times,serif" font-size="14.00">data 1.0000, &#45;1.0000...</text>
<polyline fill="none" stroke="black" points="2824.49,-195 2964.99,-195"/>
<text xml:space="preserve" text-anchor="middle" x="2894.74" y="-177.7" font-family="Times,serif" font-size="14.00">grad 0.0000, 0.0000...</text>
</g>
<!-- 4376774320&#45;&gt;4376878160_op -->
<g id="edge18" class="edge">
<title>4376774320&#45;&gt;4376878160_op</title>
<path fill="none" stroke="black" d="M2965.22,-210.81C2975.41,-213.12 2985.73,-215.47 2995.42,-217.68"/>
<polygon fill="black" stroke="black" points="2994.46,-221.05 3004.98,-219.85 2996.01,-214.22 2994.46,-221.05"/>
</g>
<!-- 4376879056 -->
<g id="node25" class="node">
<title>4376879056</title>
<polygon fill="white" stroke="black" points="2824.49,-238.5 2824.49,-287.5 2964.99,-287.5 2964.99,-238.5 2824.49,-238.5"/>
<text xml:space="preserve" text-anchor="middle" x="2894.74" y="-270.2" font-family="Times,serif" font-size="14.00">data 1.2714, &#45;0.8451...</text>
<polyline fill="none" stroke="black" points="2824.49,-263 2964.99,-263"/>
<text xml:space="preserve" text-anchor="middle" x="2894.74" y="-245.7" font-family="Times,serif" font-size="14.00">grad 0.1357, 0.0774...</text>
</g>
<!-- 4376879056&#45;&gt;4376878160_op -->
<g id="edge19" class="edge">
<title>4376879056&#45;&gt;4376878160_op</title>
<path fill="none" stroke="black" d="M2965.22,-247.19C2975.41,-244.88 2985.73,-242.53 2995.42,-240.32"/>
<polygon fill="black" stroke="black" points="2996.01,-243.78 3004.98,-238.15 2994.46,-236.95 2996.01,-243.78"/>
</g>
<!-- 4378270800_op -->
<g id="node26" class="node">
<title>4378270800_op</title>
<ellipse fill="lightgrey" stroke="black" cx="779.15" cy="-195" rx="39.58" ry="18"/>
<text xml:space="preserve" text-anchor="middle" x="779.15" y="-189.95" font-family="Times,serif" font-size="14.00">dropout</text>
</g>
<!-- 4378270800_op&#45;&gt;4378270800 -->
<g id="edge20" class="edge">
<title>4378270800_op&#45;&gt;4378270800</title>
<path fill="none" stroke="black" d="M818.89,-195C827.16,-195 836.17,-195 845.34,-195"/>
<polygon fill="black" stroke="black" points="845.05,-198.5 855.05,-195 845.05,-191.5 845.05,-198.5"/>
</g>
<!-- 4376128752 -->
<g id="node27" class="node">
<title>4376128752</title>
<polygon fill="white" stroke="black" points="2.25,-68.5 2.25,-117.5 142.75,-117.5 142.75,-68.5 2.25,-68.5"/>
<text xml:space="preserve" text-anchor="middle" x="72.5" y="-100.2" font-family="Times,serif" font-size="14.00">data 0.3856, &#45;1.3492...</text>
<polyline fill="none" stroke="black" points="2.25,-93 142.75,-93"/>
<text xml:space="preserve" text-anchor="middle" x="72.5" y="-75.7" font-family="Times,serif" font-size="14.00">grad 0.0038, 0.0000...</text>
</g>
<!-- 4378273104_op -->
<g id="node33" class="node">
<title>4378273104_op</title>
<ellipse fill="lightgrey" stroke="black" cx="218.53" cy="-93" rx="27" ry="18"/>
<text xml:space="preserve" text-anchor="middle" x="218.53" y="-87.95" font-family="Times,serif" font-size="14.00">@</text>
</g>
<!-- 4376128752&#45;&gt;4378273104_op -->
<g id="edge27" class="edge">
<title>4376128752&#45;&gt;4378273104_op</title>
<path fill="none" stroke="black" d="M142.98,-93C155.69,-93 168.5,-93 179.84,-93"/>
<polygon fill="black" stroke="black" points="179.53,-96.5 189.53,-93 179.53,-89.5 179.53,-96.5"/>
</g>
<!-- 4376880464 -->
<g id="node28" class="node">
<title>4376880464</title>
<polygon fill="white" stroke="black" points="2264.42,-136.5 2264.42,-185.5 2406.42,-185.5 2406.42,-136.5 2264.42,-136.5"/>
<text xml:space="preserve" text-anchor="middle" x="2335.42" y="-168.2" font-family="Times,serif" font-size="14.00">data &#45;0.0074, 1.7033...</text>
<polyline fill="none" stroke="black" points="2264.42,-161 2406.42,-161"/>
<text xml:space="preserve" text-anchor="middle" x="2335.42" y="-143.7" font-family="Times,serif" font-size="14.00">grad &#45;0.0282, 0.0725...</text>
</g>
<!-- 4376880464&#45;&gt;4378273488_op -->
<g id="edge34" class="edge">
<title>4376880464&#45;&gt;4378273488_op</title>
<path fill="none" stroke="black" d="M2388.69,-185.93C2408.29,-195.29 2429.97,-205.63 2447.17,-213.83"/>
<polygon fill="black" stroke="black" points="2445.34,-216.84 2455.87,-217.99 2448.35,-210.52 2445.34,-216.84"/>
</g>
<!-- 4376880464_op -->
<g id="node29" class="node">
<title>4376880464_op</title>
<ellipse fill="lightgrey" stroke="black" cx="2201.42" cy="-161" rx="27" ry="18"/>
<text xml:space="preserve" text-anchor="middle" x="2201.42" y="-155.95" font-family="Times,serif" font-size="14.00">*</text>
</g>
<!-- 4376880464_op&#45;&gt;4376880464 -->
<g id="edge21" class="edge">
<title>4376880464_op&#45;&gt;4376880464</title>
<path fill="none" stroke="black" d="M2228.82,-161C2235.98,-161 2244.14,-161 2252.67,-161"/>
<polygon fill="black" stroke="black" points="2252.53,-164.5 2262.53,-161 2252.53,-157.5 2252.53,-164.5"/>
</g>
<!-- 4376882512 -->
<g id="node30" class="node">
<title>4376882512</title>
<polygon fill="white" stroke="black" points="1998.67,-170.5 1998.67,-219.5 2136.17,-219.5 2136.17,-170.5 1998.67,-170.5"/>
<text xml:space="preserve" text-anchor="middle" x="2067.42" y="-202.2" font-family="Times,serif" font-size="14.00">data 1.1111, 1.1111...</text>
<polyline fill="none" stroke="black" points="1998.67,-195 2136.17,-195"/>
<text xml:space="preserve" text-anchor="middle" x="2067.42" y="-177.7" font-family="Times,serif" font-size="14.00">grad 0.0002, 0.1112...</text>
</g>
<!-- 4376882512&#45;&gt;4376880464_op -->
<g id="edge22" class="edge">
<title>4376882512&#45;&gt;4376880464_op</title>
<path fill="none" stroke="black" d="M2136.36,-177.5C2146.19,-174.97 2155.98,-172.45 2164.82,-170.17"/>
<polygon fill="black" stroke="black" points="2165.57,-173.59 2174.38,-167.71 2163.82,-166.81 2165.57,-173.59"/>
</g>
<!-- 4376878672 -->
<g id="node31" class="node">
<title>4376878672</title>
<polygon fill="white" stroke="black" points="1996.42,-102.5 1996.42,-151.5 2138.42,-151.5 2138.42,-102.5 1996.42,-102.5"/>
<text xml:space="preserve" text-anchor="middle" x="2067.42" y="-134.2" font-family="Times,serif" font-size="14.00">data &#45;0.0066, 1.5329...</text>
<polyline fill="none" stroke="black" points="1996.42,-127 2138.42,-127"/>
<text xml:space="preserve" text-anchor="middle" x="2067.42" y="-109.7" font-family="Times,serif" font-size="14.00">grad &#45;0.0314, 0.0806...</text>
</g>
<!-- 4376878672&#45;&gt;4376880464_op -->
<g id="edge23" class="edge">
<title>4376878672&#45;&gt;4376880464_op</title>
<path fill="none" stroke="black" d="M2138.67,-145.1C2147.71,-147.42 2156.64,-149.72 2164.79,-151.82"/>
<polygon fill="black" stroke="black" points="2163.68,-155.15 2174.24,-154.26 2165.43,-148.37 2163.68,-155.15"/>
</g>
<!-- 4376882512_op -->
<g id="node32" class="node">
<title>4376882512_op</title>
<ellipse fill="lightgrey" stroke="black" cx="1910.61" cy="-195" rx="39.58" ry="18"/>
<text xml:space="preserve" text-anchor="middle" x="1910.61" y="-189.95" font-family="Times,serif" font-size="14.00">dropout</text>
</g>
<!-- 4376882512_op&#45;&gt;4376882512 -->
<g id="edge24" class="edge">
<title>4376882512_op&#45;&gt;4376882512</title>
<path fill="none" stroke="black" d="M1950.67,-195C1961.9,-195 1974.56,-195 1987.28,-195"/>
<polygon fill="black" stroke="black" points="1986.93,-198.5 1996.93,-195 1986.93,-191.5 1986.93,-198.5"/>
</g>
<!-- 4378273104_op&#45;&gt;4378273104 -->
<g id="edge25" class="edge">
<title>4378273104_op&#45;&gt;4378273104</title>
<path fill="none" stroke="black" d="M245.95,-93C256.61,-93 269.53,-93 282.86,-93"/>
<polygon fill="black" stroke="black" points="282.59,-96.5 292.59,-93 282.59,-89.5 282.59,-96.5"/>
</g>
<!-- 4371469712 -->
<g id="node34" class="node">
<title>4371469712</title>
<polygon fill="white" stroke="black" points="3.75,-0.5 3.75,-49.5 141.25,-49.5 141.25,-0.5 3.75,-0.5"/>
<text xml:space="preserve" text-anchor="middle" x="72.5" y="-32.2" font-family="Times,serif" font-size="14.00">data 2.0000, 3.0000...</text>
<polyline fill="none" stroke="black" points="3.75,-25 141.25,-25"/>
<text xml:space="preserve" text-anchor="middle" x="72.5" y="-7.7" font-family="Times,serif" font-size="14.00">grad 0.3813, 1.3813...</text>
</g>
<!-- 4371469712&#45;&gt;4378273104_op -->
<g id="edge26" class="edge">
<title>4371469712&#45;&gt;4378273104_op</title>
<path fill="none" stroke="black" d="M126.31,-49.93C146.26,-59.35 168.33,-69.77 185.76,-78"/>
<polygon fill="black" stroke="black" points="184.05,-81.06 194.59,-82.17 187.04,-74.73 184.05,-81.06"/>
</g>
<!-- 4378269136_op&#45;&gt;4378269136 -->
<g id="edge28" class="edge">
<title>4378269136_op&#45;&gt;4378269136</title>
<path fill="none" stroke="black" d="M1378.96,-93C1386.45,-93 1394.61,-93 1402.96,-93"/>
<polygon fill="black" stroke="black" points="1402.92,-96.5 1412.92,-93 1402.92,-89.5 1402.92,-96.5"/>
</g>
<!-- 4376878672_op&#45;&gt;4376878672 -->
<g id="edge30" class="edge">
<title>4376878672_op&#45;&gt;4376878672</title>
<path fill="none" stroke="black" d="M1960.59,-127C1968.33,-127 1976.5,-127 1984.74,-127"/>
<polygon fill="black" stroke="black" points="1984.47,-130.5 1994.47,-127 1984.47,-123.5 1984.47,-130.5"/>
</g>
<!-- 4378273488 -->
<g id="node37" class="node">
<title>4378273488</title>
<polygon fill="white" stroke="black" points="2555.74,-204.5 2555.74,-253.5 2696.24,-253.5 2696.24,-204.5 2555.74,-204.5"/>
<text xml:space="preserve" text-anchor="middle" x="2625.99" y="-236.2" font-family="Times,serif" font-size="14.00">data 1.2949, &#45;0.8216...</text>
<polyline fill="none" stroke="black" points="2555.74,-229 2696.24,-229"/>
<text xml:space="preserve" text-anchor="middle" x="2625.99" y="-211.7" font-family="Times,serif" font-size="14.00">grad 0.1357, 0.0774...</text>
</g>
<!-- 4378273488&#45;&gt;4376879056_op -->
<g id="edge38" class="edge">
<title>4378273488&#45;&gt;4376879056_op</title>
<path fill="none" stroke="black" d="M2696.47,-246.7C2706.25,-249.19 2715.95,-251.66 2724.74,-253.89"/>
<polygon fill="black" stroke="black" points="2723.66,-257.23 2734.21,-256.31 2725.39,-250.45 2723.66,-257.23"/>
</g>
<!-- 4378273488_op&#45;&gt;4378273488 -->
<g id="edge32" class="edge">
<title>4378273488_op&#45;&gt;4378273488</title>
<path fill="none" stroke="black" d="M2507.37,-229C2518.03,-229 2530.95,-229 2544.28,-229"/>
<polygon fill="black" stroke="black" points="2544.02,-232.5 2554.02,-229 2544.02,-225.5 2544.02,-232.5"/>
</g>
<!-- 4378271440_op&#45;&gt;4378271440 -->
<g id="edge35" class="edge">
<title>4378271440_op&#45;&gt;4378271440</title>
<path fill="none" stroke="black" d="M806.33,-127C816.94,-127 829.84,-127 843.16,-127"/>
<polygon fill="black" stroke="black" points="842.9,-130.5 852.9,-127 842.9,-123.5 842.9,-130.5"/>
</g>
<!-- 4376879056_op&#45;&gt;4376879056 -->
<g id="edge37" class="edge">
<title>4376879056_op&#45;&gt;4376879056</title>
<path fill="none" stroke="black" d="M2788.73,-263C2795.91,-263 2804.09,-263 2812.63,-263"/>
<polygon fill="black" stroke="black" points="2812.52,-266.5 2822.52,-263 2812.52,-259.5 2812.52,-266.5"/>
</g>
</g>
</svg>
